<svg width="1920" height="1080" viewBox="0 0 1920 1080" fill="none" xmlns="http://www.w3.org/2000/svg">
<path opacity="0.0707965" d="M22.9311 0.00628662C93.2496 43.1052 964.661 547.712 964.661 547.712C946.458 537.562 385.081 123.794 217.223 0.00628662H22.9311ZM964.661 547.712C964.661 547.712 684.95 120.436 610.145 0.00628662H498.793L964.661 547.712ZM964.661 547.712L864.215 0.00628662H694.689C741.13 93.4563 962.538 539.19 964.661 547.712ZM964.661 547.712L1115.39 0.00628662H995.367L964.661 547.712ZM964.661 547.712L1382.16 0.00628662H1232.18C1191.7 82.69 972.265 530.923 964.661 547.712ZM964.661 547.712L1582.05 0.00628662H1504.42L964.661 547.712ZM964.661 547.712L1872.67 0.00628662H1740.73L964.661 547.712ZM964.661 547.712L1931 243.704V110.468L964.661 547.712ZM964.661 547.712L1931 546.671V391.702L964.661 547.712ZM964.661 547.712L1931 1071.07V923.257L969.376 549.541L1931 807.938V665.775C1716.82 638.281 1023.03 549.698 967.804 548.942L964.661 547.712ZM964.661 547.712L1582.93 1090.12H1753.05L964.661 547.712ZM964.661 547.712C989.371 609.71 1207.95 993.292 1263.3 1090.12H1378.26L964.661 547.712ZM964.661 547.712C972.917 601.566 1018.64 989.061 1030.54 1090.12H1151L964.661 547.712ZM964.661 547.712C962.785 564.655 933.509 934.403 921.195 1090.12H943.981L964.661 547.712ZM964.661 547.712C958.849 571.045 791.454 949.638 729.197 1090.12H846.678L964.661 547.712ZM964.661 547.712C926.117 600.462 681.6 925.549 557.754 1090.12H577.899L964.661 547.712ZM964.661 547.712C923.677 574.448 395.828 978.922 250.821 1090.12H409.787L964.661 547.712ZM964.661 547.712C862.596 602.198 122.149 970.151 0.0195312 1030.82V1089.87C0.0195312 1090 0.182648 1090.12 0.396653 1090.12H115.394C354.404 933.385 964.661 547.712 964.661 547.712ZM964.661 547.712L0.0195312 776.963V876.48C257.088 790.739 932.132 564.995 964.661 547.712ZM964.661 547.712C964.235 547.712 962.023 548.083 958.91 548.658L964.661 547.712ZM964.661 547.712L960.858 547.018C962.066 547.305 963.194 547.554 963.876 547.648L0.0195312 488.79V572.346C241.54 566.499 931.292 549.682 964.661 547.712ZM960.858 547.018C902.655 533.166 251.707 301.694 0.0195312 211.941V370.253L960.858 547.018ZM958.91 548.658L0.0195312 708.705V743.812C262.624 693.813 893.734 560.7 958.91 548.658Z" fill="url(#paint0_radial_61_1566)"/>
<defs>
<radialGradient id="paint0_radial_61_1566" cx="0" cy="0" r="1" gradientUnits="userSpaceOnUse" gradientTransform="translate(967.018 532.321) rotate(89.9998) scale(1028.17 1020.46)">
<stop stop-color="#3FCDF7"/>
<stop offset="0.5" stop-color="#40CAF4"/>
<stop offset="1" stop-color="#41CDF6"/>
</radialGradient>
</defs>
</svg>
